<svg id="Layer_1" data-name="Layer 1" xmlns="http://www.w3.org/2000/svg" viewBox="0 0 397.25 396.46"><defs><style>.cls-1{fill:#fff;}</style></defs><rect class="cls-1" x="184.1" y="263.5" width="216.57" height="50.86" rx="12.33" transform="translate(269.01 -137.47) rotate(45)"/><path d="M364.58,333.91a19.24,19.24,0,0,1-27.21,27.21L220.19,244a19.25,19.25,0,0,1,27.22-27.22L364.58,333.91m4.38-4.38L251.78,212.36a25.43,25.43,0,0,0-36,36L333,365.5a25.43,25.43,0,1,0,36-36Z" transform="translate(-20.93 -15.35)"/><path class="cls-1" d="M328.12,279.43,304,255.34l16.95-66c5.08-19.77-19.18-33.61-33.61-19.18l-34.25,34.25-12.5-12.5a32,32,0,0,0-45.23,0h0a32,32,0,0,0,0,45.23l12.5,12.5-34.25,34.25c-14.43,14.43-.59,38.69,19.18,33.61l66-16.95,24.09,24.08a32,32,0,0,0,45.23,0h0A32,32,0,0,0,328.12,279.43Z" transform="translate(-20.93 -15.35)"/><path d="M311.55,174.7A13.22,13.22,0,0,1,315,187.83l-16.95,66-.87,3.41,2.49,2.5,24.09,24.08a25.8,25.8,0,0,1-36.49,36.49L263.18,296.2l-2.5-2.49-3.41.87-66,16.95a13.18,13.18,0,0,1-13.12-3.44c-4.84-4.83-6.53-13.41-.14-19.8l34.24-34.24,4.38-4.38-4.38-4.37-12.49-12.5a25.8,25.8,0,1,1,36.48-36.48l12.5,12.49,4.37,4.38,4.38-4.38,34.24-34.24A13.3,13.3,0,0,1,302,170.42a14.75,14.75,0,0,1,9.58,4.28m4.38-4.37c-7.22-7.22-19.72-9-28.55-.14l-34.25,34.25-12.5-12.5a32,32,0,0,0-45.23,0h0a32,32,0,0,0,0,45.23l12.5,12.5-34.25,34.25c-8.83,8.83-7.08,21.33.14,28.55a19.45,19.45,0,0,0,19,5.06l66-16.95,24.09,24.08a32,32,0,0,0,45.23,0h0a32,32,0,0,0,0-45.23L304,255.34l16.95-66a19.45,19.45,0,0,0-5.06-19Z" transform="translate(-20.93 -15.35)"/><path class="cls-1" d="M278.82,269.64l12.76-44.7a5.82,5.82,0,0,0-9.71-5.71l-57.45,57.45a5.82,5.82,0,0,0,5.71,9.71l44.7-12.75A5.8,5.8,0,0,0,278.82,269.64Z" transform="translate(-20.93 -15.35)"/><path d="M277.72,240.55a5.42,5.42,0,0,1,1.37,5.62l-5.27,18.47a5.78,5.78,0,0,1-4,4l-18.47,5.27a5.42,5.42,0,0,1-5.62-1.37,5.73,5.73,0,0,1-.08-8.33l23.74-23.74a5.74,5.74,0,0,1,8.33.09m4.38-4.38a11.92,11.92,0,0,0-17.09-.08l-23.74,23.74a11.9,11.9,0,0,0,.09,17.08,11.61,11.61,0,0,0,11.69,2.94l18.47-5.27a12,12,0,0,0,8.25-8.24L285,247.86a11.62,11.62,0,0,0-2.94-11.69Z" transform="translate(-20.93 -15.35)"/><rect class="cls-1" x="177.99" y="-11.96" width="99" height="466.14" rx="22" transform="translate(202.05 -111.44) rotate(45)"/><path d="M390.83,63.6a39.23,39.23,0,0,1,0,55.42L125.39,384.46a39.23,39.23,0,0,1-55.42,0l-5.83-5.84a39.23,39.23,0,0,1,0-55.42L329.58,57.76a39.23,39.23,0,0,1,55.42,0l5.83,5.84m4.38-4.38-5.83-5.83a45.39,45.39,0,0,0-64.18,0L59.76,318.83a45.38,45.38,0,0,0,0,64.17l5.84,5.83a45.38,45.38,0,0,0,64.17,0L395.21,123.39a45.38,45.38,0,0,0,0-64.17Z" transform="translate(-20.93 -15.35)"/><path class="cls-1" d="M395.92,60.73,374.43,18.21a5.21,5.21,0,0,0-8.34-1.34L22.46,360.51a5.21,5.21,0,0,0,1.24,8.29L65.53,391a5.22,5.22,0,0,0,6.13-.92L395,66.77A5.21,5.21,0,0,0,395.92,60.73Z" transform="translate(-20.93 -15.35)"/><path d="M25.54,372.59a13.88,13.88,0,0,1,0-19.57L358.49,20.1a13.86,13.86,0,0,1,22.16,3.54l16.23,32.11a13.83,13.83,0,0,1-2.57,16L76.74,389.35a13.77,13.77,0,0,1-16.28,2.45L28.88,375.05A14.22,14.22,0,0,1,25.54,372.59ZM373.69,24.45a7.69,7.69,0,0,0-10.82,0L30,357.39a7.66,7.66,0,0,0,1.83,12.19l31.58,16.75a7.63,7.63,0,0,0,9-1.35L389.93,67.41a7.63,7.63,0,0,0,1.42-8.87L375.13,26.43A7.92,7.92,0,0,0,373.69,24.45Z" transform="translate(-20.93 -15.35)"/><circle class="cls-1" cx="279.48" cy="281.6" r="14.44"/><path d="M306.24,291.12a8.24,8.24,0,1,1-11.66,0,8.24,8.24,0,0,1,11.66,0m4.38-4.38a14.44,14.44,0,1,0,0,20.42,14.44,14.44,0,0,0,0-20.42Z" transform="translate(-20.93 -15.35)"/><path d="M56.12,385.19a3.1,3.1,0,0,1,0-4.38L385.73,51.2a3.09,3.09,0,0,1,4.37,4.37L60.49,385.19A3.1,3.1,0,0,1,56.12,385.19Z" transform="translate(-20.93 -15.35)"/></svg>